<svg width="80" height="83" viewBox="0 0 80 83" fill="none" xmlns="http://www.w3.org/2000/svg">
<path d="M50.8267 23.7772C50.8202 23.7837 50.8134 23.7869 50.8064 23.7869C50.8064 23.7772 50.8064 23.7666 50.7966 23.7569C50.8064 23.7666 50.8169 23.7772 50.8267 23.7772Z" fill="black"/>
<path d="M50.8267 23.7772C50.8202 23.7837 50.8134 23.7869 50.8064 23.7869C50.8064 23.7772 50.8064 23.7666 50.7966 23.7569C50.8064 23.7666 50.8169 23.7772 50.8267 23.7772Z" fill="black"/>
<path d="M50.8267 23.7772C50.8202 23.7837 50.8134 23.7869 50.8064 23.7869C50.8064 23.7772 50.8064 23.7666 50.7966 23.7569C50.8064 23.7666 50.8169 23.7772 50.8267 23.7772Z" fill="black"/>
<path d="M50.8267 23.7772C50.8202 23.7837 50.8134 23.7869 50.8064 23.7869C50.8064 23.7772 50.8064 23.7666 50.7966 23.7569C50.8064 23.7666 50.8169 23.7772 50.8267 23.7772Z" fill="black"/>
<path d="M50.8267 23.7772C50.8202 23.7837 50.8134 23.7869 50.8064 23.7869C50.8064 23.7772 50.8064 23.7666 50.7966 23.7569C50.8064 23.7666 50.8169 23.7772 50.8267 23.7772Z" fill="black"/>
<path d="M50.8267 23.7772C50.8202 23.7837 50.8134 23.7869 50.8064 23.7869C50.8064 23.7772 50.8064 23.7666 50.7966 23.7569C50.8064 23.7666 50.8169 23.7772 50.8267 23.7772Z" fill="black"/>
<path d="M22.2495 37.2502C22.1515 37.0241 22.0631 36.7986 21.9747 36.5724C22.083 36.7883 22.1714 37.0145 22.2495 37.2502Z" fill="black"/>
<path d="M46.385 22.3482C46.2767 22.5154 46.1588 22.6923 46.0409 22.8492C45.9525 22.987 45.8545 23.1144 45.7558 23.2522C45.6085 23.468 45.4516 23.6743 45.2939 23.8806C43.7519 23.4975 42.1502 23.2419 40.5198 23.124C40.7851 22.8389 41.0304 22.5442 41.2765 22.2598C41.4827 22.024 41.6795 21.7883 41.8754 21.543C42.0427 21.3367 42.2092 21.1304 42.3764 20.9241C45.3234 17.2014 47.6809 13.0557 49.3806 8.64488C46.7379 12.9673 43.4182 16.8175 39.5577 20.0791C39.3315 20.0297 39.106 19.9906 38.8703 19.9516L38.5365 19.9022C38.2809 19.8632 38.026 19.8337 37.7607 19.8043C37.8786 19.4705 37.9869 19.136 38.0849 18.7927C38.1048 18.7338 38.1144 18.6748 38.1343 18.6255C39.0869 15.2269 39.0574 11.5137 37.83 7.93761C37.7806 7.79027 37.7217 7.63334 37.6731 7.48599C37.5456 7.14194 37.4079 6.80819 37.2701 6.48403C37.3194 7.23035 37.3386 7.9774 37.329 8.71414C37.3091 10.5214 37.1132 12.3094 36.7595 14.0577C36.3668 16.0123 35.7775 17.9086 34.9914 19.7357C34.3526 19.7652 33.7146 19.8241 33.0758 19.9221C31.8971 20.1085 30.7183 20.4135 29.5491 20.8453C29.1954 20.9727 28.8514 21.1201 28.5081 21.2674C28.0365 21.4737 27.5849 21.6999 27.1429 21.9452C27.4766 21.4936 27.8008 21.0317 28.1154 20.5601C31.6613 15.3146 34.1367 9.3912 35.3553 3.15324C35.5616 2.11223 35.7288 1.05132 35.8659 0C35.9837 0.127456 36.1016 0.255648 36.2099 0.383104C36.5245 0.746315 36.8192 1.11026 37.1036 1.50295C38.0562 2.7996 38.8519 4.24361 39.4412 5.81507C39.4508 5.85412 39.4707 5.8939 39.4803 5.93295C40.8749 9.69547 40.9442 13.6341 39.9024 17.2102C44.4017 13.4086 48.1834 8.78192 51.0029 3.56581C51.0125 3.55623 51.0125 3.53634 51.0228 3.52676C51.0913 4.17509 51.1311 4.82342 51.1502 5.47175C51.3661 11.4835 49.6473 17.3973 46.3857 22.3482" fill="#F25022"/>
<path d="M79.0262 44.7259C78.4663 45.6299 77.6212 46.3666 76.5507 46.7593C76.4034 46.8182 76.2465 46.8676 76.0991 46.8971C76.0011 46.9169 75.9024 46.9464 75.814 46.956C74.0849 47.3096 72.327 46.7003 71.1777 45.4236C70.7747 44.9815 70.4505 44.4415 70.2251 43.8521C70.1072 43.5478 70.0284 43.2428 69.9798 42.929C72.3764 43.8226 74.9012 44.4025 77.4849 44.6286C77.6713 44.6485 77.8584 44.6581 78.0448 44.678C78.0839 44.678 78.1134 44.6876 78.1531 44.6876H78.173C78.4478 44.6972 78.733 44.7171 79.0276 44.7266" fill="#00A4EF"/>
<path d="M34.4786 20.857C34.4101 20.9948 34.3408 21.1422 34.2723 21.2792C33.8892 22.055 33.4671 22.8116 33.0147 23.5483C32.9263 23.6957 32.8379 23.843 32.7399 23.9808C32.4253 24.4818 32.0916 24.9629 31.7379 25.4447C31.6399 25.5825 31.5412 25.7195 31.4337 25.8573C30.8833 26.5844 30.2939 27.2917 29.6655 27.9695C29.6591 27.9759 29.6525 27.9825 29.6456 27.9894C29.5277 28.1272 29.4003 28.2546 29.2721 28.3821C29.0857 28.5884 28.8985 28.7947 28.7217 29.0009C28.6628 29.0695 28.6039 29.1387 28.5545 29.2072C28.4462 29.3347 28.3482 29.4629 28.2502 29.5999C28.0344 29.8747 27.8376 30.1503 27.6409 30.4346C26.8158 31.623 26.1284 32.9101 25.598 34.2458C25.4705 34.5604 25.3526 34.8941 25.2443 35.2183C23.8792 39.2556 23.8394 43.774 25.4307 48.0766C25.4506 48.1259 25.4698 48.1745 25.4897 48.2143V48.2239C25.5781 48.4597 25.6665 48.6755 25.7645 48.9017C25.7708 48.9081 25.774 48.9147 25.774 48.9216C26.0194 49.6289 26.1476 50.3855 26.1476 51.1709C26.1476 51.7404 26.0791 52.3003 25.9413 52.841C25.9022 52.9884 25.8625 53.1453 25.8138 53.2927C25.7652 53.44 25.7158 53.5778 25.6665 53.7148C24.6549 56.2787 22.1596 58.0962 19.2325 58.0962C15.4111 58.0962 12.3168 55.0019 12.3168 51.1804C12.3168 49.6871 12.7883 48.302 13.5936 47.1726C13.1611 47.8305 12.9062 48.6166 12.9062 49.4712C12.9062 51.7794 14.7723 53.6463 17.0813 53.6463C19.3902 53.6463 21.2564 51.7801 21.2564 49.4712C21.2564 49.0093 21.1775 48.5672 21.0405 48.1451C21.0309 48.0957 21.011 48.0471 20.9911 47.9977C20.9226 47.8209 20.8438 47.6441 20.7554 47.4769C20.3332 46.7106 19.9693 45.9054 19.6554 45.0699C19.5574 44.8047 19.4587 44.5299 19.3806 44.2544C18.6048 41.8084 18.3691 39.3131 18.624 36.8966C18.6829 36.3757 18.7618 35.8556 18.8598 35.3347C18.8693 35.2853 18.8797 35.2367 18.8892 35.1873C19.0756 34.2937 19.3217 33.4096 19.6355 32.555C19.7335 32.2897 19.8323 32.0245 19.9398 31.7689C19.9789 31.6709 20.0186 31.5825 20.0577 31.4837C20.264 31.0218 20.4798 30.5702 20.7259 30.1282C20.8143 29.9712 20.8932 29.8136 20.9816 29.6662C21.3057 29.1159 21.6594 28.5758 22.0329 28.055C22.416 27.5341 22.8381 27.0235 23.2706 26.5424C23.277 26.5361 23.2836 26.5294 23.2905 26.5226C23.3104 26.5027 23.3295 26.4835 23.3399 26.4636C23.4283 26.3656 23.5263 26.2669 23.6147 26.1689V26.1593C23.6242 26.1498 23.6441 26.1299 23.6537 26.1203L23.7031 26.0709C25.2259 24.5289 27.0427 23.2419 29.1159 22.3084C29.4894 22.1412 29.8725 21.9843 30.2652 21.8369C31.1397 21.5127 32.0135 21.2674 32.8976 21.0803C33.4376 21.0014 33.9585 20.913 34.4793 20.8541" fill="#FFB900"/>
<path d="M68.9432 74.9594C66.6541 74.6154 64.3069 74.4386 61.9294 74.4386C56.4282 74.4386 51.1532 75.3816 46.2517 77.1107C48.0103 75.8236 49.6112 74.331 51.0257 72.6807C52.8035 72.3366 54.6306 72.1598 56.5166 72.1598C60.957 72.1694 65.1711 73.1618 68.9432 74.9594Z" fill="#7FBA00"/>
<path d="M49.4005 73.0446C47.1704 75.4611 44.538 77.4945 41.6006 79.0365C41.6006 79.0365 41.5911 79.0365 41.5911 79.0461C41.1881 79.2325 40.7858 79.4388 40.3924 79.645C40.3828 79.645 40.3725 79.6546 40.3629 79.6546C38.7126 80.4304 36.9835 81.0493 35.1763 81.5016C32.8976 82.0711 30.5201 82.3761 28.0646 82.3761C24.4199 82.3761 20.9425 81.7079 17.7303 80.4805H17.7208C7.30844 76.0697 0 65.7553 0 53.7421C0 46.0505 2.99631 39.0567 7.87794 33.87C8.34945 33.3595 8.85043 32.8681 9.37131 32.3966C9.3912 32.3966 9.41035 32.387 9.43024 32.387C9.15544 32.8386 8.89021 33.291 8.63457 33.7625C6.38531 37.8786 5.1078 42.6033 5.1078 47.6227C5.1078 63.6446 18.1039 76.6406 34.1257 76.6406C37.9862 76.6406 41.6603 75.884 45.0198 74.5188C45.0262 74.5188 45.0329 74.5156 45.0397 74.5092C45.1967 74.4503 45.344 74.3914 45.4913 74.3228C45.5009 74.3228 45.5112 74.3133 45.5208 74.3133C45.5407 74.3037 45.5599 74.2934 45.5798 74.2838C46.8175 73.7924 48.0942 73.3702 49.4012 73.0461" fill="#7FBA00"/>
<path d="M74.9211 47.9491C73.1139 49.8057 70.8742 51.2991 68.2904 52.2613C67.9957 52.3696 67.6915 52.4771 67.3968 52.5655C66.0021 53.0076 64.5876 53.2632 63.1826 53.3612C63.1141 53.3708 63.0449 53.3708 62.9763 53.3708H62.9373C62.633 53.3907 62.3184 53.3907 62.0039 53.4002H61.886C61.5913 53.4002 61.287 53.3907 60.9923 53.3708V53.3907C60.2946 53.3708 59.6072 53.3317 58.9199 53.2632C58.8315 53.2536 58.7526 53.2433 58.6642 53.2337C57.7706 53.1358 56.8762 52.998 56.0024 52.8212C55.511 52.7232 55.0203 52.6053 54.5385 52.4771C53.2028 52.1331 51.8958 51.691 50.619 51.1606C50.5107 51.1215 50.4032 51.0722 50.3045 51.0228C50.2949 51.0228 50.2949 51.0132 50.2846 51.0132C50.1962 50.9742 50.0982 50.9344 50.0098 50.8953C50.0034 50.9017 50.0002 50.9084 50.0002 50.9152C49.5382 50.7583 49.0572 50.65 48.5658 50.6006C48.1038 50.5616 47.6323 50.5616 47.1711 50.6205C46.6797 50.6795 46.189 50.7974 45.7072 50.9742C45.5599 51.0331 45.4125 51.0921 45.2748 51.151C43.6738 51.8782 42.495 53.2043 41.9152 54.7662C41.8858 54.8347 41.8659 54.9135 41.8364 54.982C41.8069 55.0704 41.7775 55.1493 41.7576 55.2377C41.6692 55.5324 41.6102 55.847 41.5609 56.1512C41.5218 56.3966 41.5115 56.6522 41.5019 56.8975C41.4923 57.6733 41.6198 58.469 41.9049 59.2455C42.0913 59.7369 42.3271 60.1981 42.6122 60.621C43.5257 61.967 44.9012 62.8997 46.4432 63.2733C46.0601 63.2239 45.6866 63.1554 45.3234 63.067C43.9582 62.566 42.7205 61.7114 41.7775 60.5717C41.1976 59.874 40.7261 59.0687 40.3924 58.175C40.206 57.6645 40.0682 57.1532 39.9894 56.6331C39.9798 56.6036 39.9798 56.5645 39.9695 56.5351C39.9106 56.1424 39.8811 55.749 39.8715 55.3563V55.111C39.8715 55.0424 39.8715 54.9835 39.8811 54.9246C39.8907 54.7868 39.901 54.6394 39.9106 54.5024C40.0579 52.9995 40.6178 51.565 41.5115 50.3568C42.1694 49.4727 43.0144 48.7065 44.0164 48.137C44.2227 48.0191 44.4386 47.9012 44.6647 47.7929C44.8614 47.7045 45.0574 47.6257 45.2637 47.5476C45.9415 47.3023 46.6289 47.1446 47.3067 47.0761C47.6213 47.037 47.9454 47.0267 48.2593 47.037C49.2119 47.0466 50.1453 47.2234 51.0198 47.5579C51.3934 47.6957 51.747 47.8526 52.0903 48.0493C52.4241 48.2261 52.7386 48.4324 53.0532 48.6586C54.0552 49.3659 55.1161 49.9752 56.2359 50.4658C57.1104 50.8489 58.0137 51.1635 58.9471 51.4184C59.2322 51.4869 59.5166 51.5562 59.8017 51.6247C60.106 51.6932 60.411 51.7426 60.7153 51.7919C61.01 51.8413 61.3143 51.8804 61.6193 51.9098C63.5149 52.1161 65.4702 52.0181 67.4049 51.5857C68.2101 51.4088 69.0161 51.1731 69.8118 50.8784C71.7074 50.1711 73.427 49.1692 74.9196 47.9513" fill="#00A4EF"/>
<path d="M54.3167 35.4621C54.1495 35.5704 53.9727 35.6684 53.7959 35.7473C53.2853 35.983 52.7151 36.1208 52.1161 36.1208H52.0476C51.8803 36.1208 51.7138 36.1112 51.5466 36.0913C50.0238 35.9145 48.747 34.903 48.1967 33.5275C48.1576 33.4391 48.1281 33.3411 48.0987 33.2424C47.9609 32.8394 47.8924 32.4076 47.8924 31.9553V31.7984C49.6804 33.1444 51.635 34.2834 53.7178 35.1873C53.9145 35.2758 54.1104 35.3546 54.3072 35.4327C54.3167 35.4423 54.3271 35.4423 54.3366 35.4526C54.3366 35.4526 54.327 35.4621 54.3167 35.4621ZM65.0142 40.5405C64.1794 40.0299 63.3639 39.4796 62.5778 38.8902C61.9685 38.4386 61.3791 37.9567 60.8096 37.4462C60.7116 37.3674 60.6129 37.2789 60.5245 37.1905C58.953 35.7664 57.5186 34.1456 56.2713 32.3671C56.2514 32.3376 56.2323 32.3178 56.2219 32.2986C54.9054 30.4516 53.2256 28.9486 51.33 27.8487C51.1333 27.7308 50.9373 27.6225 50.731 27.515C50.7016 27.5054 50.6721 27.4855 50.6426 27.4759C49.5618 26.916 48.4029 26.4835 47.2146 26.1888C46.9884 26.1299 46.7526 26.0805 46.5272 26.0319C45.6232 25.8551 44.7097 25.7468 43.777 25.7372C43.1677 25.7276 42.5488 25.7468 41.9403 25.8057C40.634 25.9332 39.3271 26.2279 38.0407 26.7097C37.206 27.0243 36.4199 27.3875 35.6736 27.82L35.664 27.8295H35.6544C35.1144 28.1338 34.5935 28.4779 34.1124 28.8411C34.0439 28.8904 33.9747 28.9391 33.9061 28.998C33.8273 29.057 33.7588 29.1159 33.6903 29.1748C33.5334 29.3023 33.3757 29.4305 33.2188 29.5675C32.9535 29.7937 32.6883 30.039 32.443 30.2947C31.2148 31.5125 30.2129 32.9175 29.4666 34.4499C27.6196 38.1829 27.2659 42.6225 28.8278 46.8271C30.0066 50.0002 32.0989 52.564 34.7018 54.3219C33.8082 53.5557 33.2379 52.416 33.2379 51.1488C33.2379 49.8816 33.7684 48.8111 34.623 48.0449C34.5442 48.9584 34.662 49.911 35.0061 50.8246C35.4091 51.9054 36.067 52.8086 36.8826 53.5063C36.8435 53.1033 36.8141 52.7011 36.8141 52.2885C36.8141 51.7485 36.8531 51.2077 36.9319 50.6876C36.9319 50.6485 36.9415 50.6087 36.9518 50.5697C36.9614 50.4319 36.9909 50.3045 37.0203 50.1667C37.2362 49.0564 37.6193 48.0058 38.1402 47.0334C38.7391 45.9135 39.5348 44.9115 40.4683 44.0665C41.1954 43.4086 42.0007 42.8487 42.8752 42.4066C43.5626 42.053 44.2993 41.7782 45.0655 41.5719C45.694 41.4047 46.3423 41.2971 47.0105 41.2478C47.3052 41.2279 47.5999 41.2087 47.8946 41.2087C49.329 41.2087 50.6942 41.4835 51.9518 41.9749C52.0402 42.014 52.119 42.0434 52.1971 42.0729C52.5508 42.2107 52.914 42.358 53.2676 42.4855C53.5719 42.6033 53.8666 42.7116 54.1716 42.8096C55.36 43.2318 56.5682 43.5957 57.7963 43.9096C58.0815 43.9884 58.3762 44.0569 58.6605 44.1254C58.7291 44.1453 58.7983 44.1645 58.8764 44.1748C60.0456 44.4496 61.2244 44.6854 62.4128 44.8725C62.9727 44.9609 63.523 45.0397 64.0925 45.1083C64.1713 45.1178 64.2598 45.1281 64.3378 45.1377C65.0451 45.2166 65.7914 45.1281 66.509 44.8725C66.5289 44.8629 66.5385 44.8629 66.5584 44.8526C67.7173 44.4201 68.6212 43.6053 69.1716 42.593C67.7276 42.0331 66.3425 41.3354 65.0164 40.5397" fill="#00A4EF"/>
</svg>
